<mxfile host="app.diagrams.net" agent="Mozilla/5.0 (Windows NT 10.0; Win64; x64) AppleWebKit/537.36 (KHTML, like Gecko) Chrome/128.0.0.0 Safari/537.36" version="24.7.13">
  <diagram name="Page-1" id="aOnEKlhc9guJ_Ph4hevL">
    <mxGraphModel dx="1730" dy="1602" grid="1" gridSize="10" guides="1" tooltips="1" connect="1" arrows="1" fold="1" page="1" pageScale="1" pageWidth="850" pageHeight="1100" math="0" shadow="0">
      <root>
        <mxCell id="0" />
        <mxCell id="1" parent="0" />
        <mxCell id="MkJuN0U7cOX32T57An9G-3" value="" style="edgeStyle=orthogonalEdgeStyle;rounded=0;orthogonalLoop=1;jettySize=auto;html=1;" edge="1" parent="1" source="MkJuN0U7cOX32T57An9G-1" target="MkJuN0U7cOX32T57An9G-2">
          <mxGeometry relative="1" as="geometry" />
        </mxCell>
        <mxCell id="MkJuN0U7cOX32T57An9G-37" value="" style="edgeStyle=orthogonalEdgeStyle;rounded=0;orthogonalLoop=1;jettySize=auto;html=1;" edge="1" parent="1" source="MkJuN0U7cOX32T57An9G-1" target="MkJuN0U7cOX32T57An9G-36">
          <mxGeometry relative="1" as="geometry">
            <Array as="points">
              <mxPoint x="40" y="210" />
              <mxPoint x="40" y="210" />
            </Array>
          </mxGeometry>
        </mxCell>
        <mxCell id="MkJuN0U7cOX32T57An9G-1" value="User" style="rounded=0;whiteSpace=wrap;html=1;fillColor=#dae8fc;strokeColor=#6c8ebf;" vertex="1" parent="1">
          <mxGeometry x="20" y="130" width="120" height="60" as="geometry" />
        </mxCell>
        <mxCell id="MkJuN0U7cOX32T57An9G-5" value="" style="edgeStyle=orthogonalEdgeStyle;rounded=0;orthogonalLoop=1;jettySize=auto;html=1;" edge="1" parent="1" source="MkJuN0U7cOX32T57An9G-2" target="MkJuN0U7cOX32T57An9G-4">
          <mxGeometry relative="1" as="geometry" />
        </mxCell>
        <mxCell id="MkJuN0U7cOX32T57An9G-2" value="Choose" style="rhombus;whiteSpace=wrap;html=1;rounded=0;fillColor=#f8cecc;strokeColor=#b85450;" vertex="1" parent="1">
          <mxGeometry x="240" y="120" width="80" height="80" as="geometry" />
        </mxCell>
        <mxCell id="MkJuN0U7cOX32T57An9G-7" value="" style="edgeStyle=orthogonalEdgeStyle;rounded=0;orthogonalLoop=1;jettySize=auto;html=1;" edge="1" parent="1" source="MkJuN0U7cOX32T57An9G-4" target="MkJuN0U7cOX32T57An9G-6">
          <mxGeometry relative="1" as="geometry" />
        </mxCell>
        <mxCell id="MkJuN0U7cOX32T57An9G-49" value="" style="edgeStyle=orthogonalEdgeStyle;rounded=0;orthogonalLoop=1;jettySize=auto;html=1;" edge="1" parent="1" source="MkJuN0U7cOX32T57An9G-4" target="MkJuN0U7cOX32T57An9G-48">
          <mxGeometry relative="1" as="geometry" />
        </mxCell>
        <mxCell id="MkJuN0U7cOX32T57An9G-4" value="Area" style="whiteSpace=wrap;html=1;rounded=0;fillColor=#dae8fc;strokeColor=#6c8ebf;" vertex="1" parent="1">
          <mxGeometry x="380" y="130" width="120" height="60" as="geometry" />
        </mxCell>
        <mxCell id="MkJuN0U7cOX32T57An9G-9" value="" style="edgeStyle=orthogonalEdgeStyle;rounded=0;orthogonalLoop=1;jettySize=auto;html=1;" edge="1" parent="1" source="MkJuN0U7cOX32T57An9G-6" target="MkJuN0U7cOX32T57An9G-8">
          <mxGeometry relative="1" as="geometry" />
        </mxCell>
        <mxCell id="MkJuN0U7cOX32T57An9G-6" value="Choose" style="rhombus;whiteSpace=wrap;html=1;rounded=0;fillColor=#f8cecc;strokeColor=#b85450;" vertex="1" parent="1">
          <mxGeometry x="600" y="120" width="80" height="80" as="geometry" />
        </mxCell>
        <mxCell id="MkJuN0U7cOX32T57An9G-11" value="" style="edgeStyle=orthogonalEdgeStyle;rounded=0;orthogonalLoop=1;jettySize=auto;html=1;" edge="1" parent="1" source="MkJuN0U7cOX32T57An9G-8" target="MkJuN0U7cOX32T57An9G-10">
          <mxGeometry relative="1" as="geometry" />
        </mxCell>
        <mxCell id="MkJuN0U7cOX32T57An9G-51" value="" style="edgeStyle=orthogonalEdgeStyle;rounded=0;orthogonalLoop=1;jettySize=auto;html=1;" edge="1" parent="1" source="MkJuN0U7cOX32T57An9G-8" target="MkJuN0U7cOX32T57An9G-50">
          <mxGeometry relative="1" as="geometry" />
        </mxCell>
        <mxCell id="MkJuN0U7cOX32T57An9G-8" value="&#xa;&lt;span style=&quot;color: rgb(0, 0, 0); font-family: Helvetica; font-size: 12px; font-style: normal; font-variant-ligatures: normal; font-variant-caps: normal; font-weight: 400; letter-spacing: normal; orphans: 2; text-align: center; text-indent: 0px; text-transform: none; widows: 2; word-spacing: 0px; -webkit-text-stroke-width: 0px; white-space: normal; background-color: rgb(251, 251, 251); text-decoration-thickness: initial; text-decoration-style: initial; text-decoration-color: initial; display: inline !important; float: none;&quot;&gt;sub Area&lt;/span&gt;&#xa;&#xa;" style="whiteSpace=wrap;html=1;rounded=0;fillColor=#dae8fc;strokeColor=#6c8ebf;" vertex="1" parent="1">
          <mxGeometry x="740" y="130" width="120" height="60" as="geometry" />
        </mxCell>
        <mxCell id="MkJuN0U7cOX32T57An9G-13" value="" style="edgeStyle=orthogonalEdgeStyle;rounded=0;orthogonalLoop=1;jettySize=auto;html=1;" edge="1" parent="1" source="MkJuN0U7cOX32T57An9G-10" target="MkJuN0U7cOX32T57An9G-12">
          <mxGeometry relative="1" as="geometry" />
        </mxCell>
        <mxCell id="MkJuN0U7cOX32T57An9G-10" value="Choose" style="rhombus;whiteSpace=wrap;html=1;rounded=0;fillColor=#f8cecc;strokeColor=#b85450;" vertex="1" parent="1">
          <mxGeometry x="760" y="260" width="80" height="80" as="geometry" />
        </mxCell>
        <mxCell id="MkJuN0U7cOX32T57An9G-17" value="" style="edgeStyle=orthogonalEdgeStyle;rounded=0;orthogonalLoop=1;jettySize=auto;html=1;" edge="1" parent="1" source="MkJuN0U7cOX32T57An9G-12" target="MkJuN0U7cOX32T57An9G-16">
          <mxGeometry relative="1" as="geometry" />
        </mxCell>
        <mxCell id="MkJuN0U7cOX32T57An9G-53" value="" style="edgeStyle=orthogonalEdgeStyle;rounded=0;orthogonalLoop=1;jettySize=auto;html=1;" edge="1" parent="1" source="MkJuN0U7cOX32T57An9G-12">
          <mxGeometry relative="1" as="geometry">
            <mxPoint x="800" y="560" as="targetPoint" />
          </mxGeometry>
        </mxCell>
        <mxCell id="MkJuN0U7cOX32T57An9G-12" value="Product Type" style="whiteSpace=wrap;html=1;rounded=0;fillColor=#dae8fc;strokeColor=#6c8ebf;" vertex="1" parent="1">
          <mxGeometry x="740" y="430" width="120" height="60" as="geometry" />
        </mxCell>
        <mxCell id="MkJuN0U7cOX32T57An9G-19" value="" style="edgeStyle=orthogonalEdgeStyle;rounded=0;orthogonalLoop=1;jettySize=auto;html=1;" edge="1" parent="1" source="MkJuN0U7cOX32T57An9G-16">
          <mxGeometry relative="1" as="geometry">
            <mxPoint x="500" y="460" as="targetPoint" />
          </mxGeometry>
        </mxCell>
        <mxCell id="MkJuN0U7cOX32T57An9G-16" value="Choose" style="rhombus;whiteSpace=wrap;html=1;rounded=0;fillColor=#f8cecc;strokeColor=#b85450;" vertex="1" parent="1">
          <mxGeometry x="560" y="420" width="80" height="80" as="geometry" />
        </mxCell>
        <mxCell id="MkJuN0U7cOX32T57An9G-56" value="" style="edgeStyle=orthogonalEdgeStyle;rounded=0;orthogonalLoop=1;jettySize=auto;html=1;" edge="1" parent="1" target="MkJuN0U7cOX32T57An9G-55">
          <mxGeometry relative="1" as="geometry">
            <mxPoint x="440" y="490" as="sourcePoint" />
          </mxGeometry>
        </mxCell>
        <mxCell id="MkJuN0U7cOX32T57An9G-28" value="" style="edgeStyle=orthogonalEdgeStyle;rounded=0;orthogonalLoop=1;jettySize=auto;html=1;" edge="1" parent="1" source="MkJuN0U7cOX32T57An9G-20" target="MkJuN0U7cOX32T57An9G-27">
          <mxGeometry relative="1" as="geometry" />
        </mxCell>
        <mxCell id="MkJuN0U7cOX32T57An9G-20" value="Customer" style="rounded=0;whiteSpace=wrap;html=1;fillColor=#dae8fc;strokeColor=#6c8ebf;" vertex="1" parent="1">
          <mxGeometry x="20" y="-90" width="120" height="60" as="geometry" />
        </mxCell>
        <mxCell id="MkJuN0U7cOX32T57An9G-24" value="" style="endArrow=classic;html=1;rounded=0;exitX=0.5;exitY=1;exitDx=0;exitDy=0;" edge="1" parent="1" source="MkJuN0U7cOX32T57An9G-20" target="MkJuN0U7cOX32T57An9G-25">
          <mxGeometry width="50" height="50" relative="1" as="geometry">
            <mxPoint x="400" y="170" as="sourcePoint" />
            <mxPoint x="80" y="30" as="targetPoint" />
          </mxGeometry>
        </mxCell>
        <mxCell id="MkJuN0U7cOX32T57An9G-26" value="" style="edgeStyle=orthogonalEdgeStyle;rounded=0;orthogonalLoop=1;jettySize=auto;html=1;" edge="1" parent="1" source="MkJuN0U7cOX32T57An9G-25" target="MkJuN0U7cOX32T57An9G-1">
          <mxGeometry relative="1" as="geometry" />
        </mxCell>
        <mxCell id="MkJuN0U7cOX32T57An9G-25" value="Choose" style="rhombus;whiteSpace=wrap;html=1;fillColor=#f8cecc;strokeColor=#b85450;" vertex="1" parent="1">
          <mxGeometry x="40" width="80" height="80" as="geometry" />
        </mxCell>
        <mxCell id="MkJuN0U7cOX32T57An9G-30" value="" style="edgeStyle=orthogonalEdgeStyle;rounded=0;orthogonalLoop=1;jettySize=auto;html=1;" edge="1" parent="1" source="MkJuN0U7cOX32T57An9G-27" target="MkJuN0U7cOX32T57An9G-29">
          <mxGeometry relative="1" as="geometry" />
        </mxCell>
        <mxCell id="MkJuN0U7cOX32T57An9G-27" value="Choose" style="rhombus;whiteSpace=wrap;html=1;fillColor=#f8cecc;strokeColor=#b85450;" vertex="1" parent="1">
          <mxGeometry x="200" y="-100" width="80" height="80" as="geometry" />
        </mxCell>
        <mxCell id="MkJuN0U7cOX32T57An9G-32" value="" style="edgeStyle=orthogonalEdgeStyle;rounded=0;orthogonalLoop=1;jettySize=auto;html=1;" edge="1" parent="1" source="MkJuN0U7cOX32T57An9G-29" target="MkJuN0U7cOX32T57An9G-31">
          <mxGeometry relative="1" as="geometry" />
        </mxCell>
        <mxCell id="MkJuN0U7cOX32T57An9G-29" value="Guest" style="whiteSpace=wrap;html=1;fillColor=#dae8fc;strokeColor=#6c8ebf;" vertex="1" parent="1">
          <mxGeometry x="380" y="-90" width="120" height="60" as="geometry" />
        </mxCell>
        <mxCell id="MkJuN0U7cOX32T57An9G-33" value="" style="edgeStyle=orthogonalEdgeStyle;rounded=0;orthogonalLoop=1;jettySize=auto;html=1;" edge="1" parent="1" source="MkJuN0U7cOX32T57An9G-31" target="MkJuN0U7cOX32T57An9G-4">
          <mxGeometry relative="1" as="geometry" />
        </mxCell>
        <mxCell id="MkJuN0U7cOX32T57An9G-31" value="Choose" style="rhombus;whiteSpace=wrap;html=1;fillColor=#f8cecc;strokeColor=#b85450;" vertex="1" parent="1">
          <mxGeometry x="400" y="10" width="80" height="80" as="geometry" />
        </mxCell>
        <mxCell id="MkJuN0U7cOX32T57An9G-36" value="Gmail / Phone" style="ellipse;whiteSpace=wrap;html=1;fillColor=#dae8fc;strokeColor=#6c8ebf;rounded=0;" vertex="1" parent="1">
          <mxGeometry x="-30" y="240" width="80" height="80" as="geometry" />
        </mxCell>
        <mxCell id="MkJuN0U7cOX32T57An9G-38" value="Name" style="ellipse;whiteSpace=wrap;html=1;aspect=fixed;fillColor=#dae8fc;strokeColor=#6c8ebf;" vertex="1" parent="1">
          <mxGeometry x="110" y="270" width="80" height="80" as="geometry" />
        </mxCell>
        <mxCell id="MkJuN0U7cOX32T57An9G-39" value="" style="endArrow=classic;html=1;rounded=0;entryX=0.375;entryY=0;entryDx=0;entryDy=0;entryPerimeter=0;exitX=0.75;exitY=1;exitDx=0;exitDy=0;" edge="1" parent="1" source="MkJuN0U7cOX32T57An9G-1" target="MkJuN0U7cOX32T57An9G-38">
          <mxGeometry width="50" height="50" relative="1" as="geometry">
            <mxPoint x="400" y="230" as="sourcePoint" />
            <mxPoint x="450" y="180" as="targetPoint" />
          </mxGeometry>
        </mxCell>
        <mxCell id="MkJuN0U7cOX32T57An9G-40" value="" style="endArrow=classic;html=1;rounded=0;exitX=0.925;exitY=0.967;exitDx=0;exitDy=0;exitPerimeter=0;" edge="1" parent="1" source="MkJuN0U7cOX32T57An9G-1" target="MkJuN0U7cOX32T57An9G-41">
          <mxGeometry width="50" height="50" relative="1" as="geometry">
            <mxPoint x="400" y="230" as="sourcePoint" />
            <mxPoint x="270" y="270" as="targetPoint" />
          </mxGeometry>
        </mxCell>
        <mxCell id="MkJuN0U7cOX32T57An9G-41" value="Nid Number" style="ellipse;whiteSpace=wrap;html=1;fillColor=#dae8fc;strokeColor=#6c8ebf;" vertex="1" parent="1">
          <mxGeometry x="210" y="230" width="100" height="80" as="geometry" />
        </mxCell>
        <mxCell id="MkJuN0U7cOX32T57An9G-42" value="Date of Birth" style="ellipse;whiteSpace=wrap;html=1;aspect=fixed;fillColor=#dae8fc;strokeColor=#6c8ebf;" vertex="1" parent="1">
          <mxGeometry x="30" y="310" width="80" height="80" as="geometry" />
        </mxCell>
        <mxCell id="MkJuN0U7cOX32T57An9G-43" value="" style="endArrow=classic;html=1;rounded=0;entryX=0.5;entryY=0;entryDx=0;entryDy=0;exitX=0.5;exitY=1;exitDx=0;exitDy=0;" edge="1" parent="1" source="MkJuN0U7cOX32T57An9G-1" target="MkJuN0U7cOX32T57An9G-42">
          <mxGeometry width="50" height="50" relative="1" as="geometry">
            <mxPoint x="400" y="230" as="sourcePoint" />
            <mxPoint x="450" y="180" as="targetPoint" />
          </mxGeometry>
        </mxCell>
        <mxCell id="MkJuN0U7cOX32T57An9G-44" value="Only See Prices" style="shape=parallelogram;perimeter=parallelogramPerimeter;whiteSpace=wrap;html=1;fixedSize=1;" vertex="1" parent="1">
          <mxGeometry x="480" y="-210" width="120" height="60" as="geometry" />
        </mxCell>
        <mxCell id="MkJuN0U7cOX32T57An9G-45" value="" style="endArrow=classic;html=1;rounded=0;entryX=0.342;entryY=1.017;entryDx=0;entryDy=0;entryPerimeter=0;exitX=0.842;exitY=-0.033;exitDx=0;exitDy=0;exitPerimeter=0;" edge="1" parent="1" source="MkJuN0U7cOX32T57An9G-29" target="MkJuN0U7cOX32T57An9G-44">
          <mxGeometry width="50" height="50" relative="1" as="geometry">
            <mxPoint x="400" y="-70" as="sourcePoint" />
            <mxPoint x="450" y="-120" as="targetPoint" />
          </mxGeometry>
        </mxCell>
        <mxCell id="MkJuN0U7cOX32T57An9G-46" value="" style="endArrow=classic;html=1;rounded=0;exitX=0.9;exitY=-0.067;exitDx=0;exitDy=0;exitPerimeter=0;" edge="1" parent="1" source="MkJuN0U7cOX32T57An9G-1" target="MkJuN0U7cOX32T57An9G-47">
          <mxGeometry width="50" height="50" relative="1" as="geometry">
            <mxPoint x="400" y="130" as="sourcePoint" />
            <mxPoint x="160" y="80" as="targetPoint" />
          </mxGeometry>
        </mxCell>
        <mxCell id="MkJuN0U7cOX32T57An9G-47" value="see prices and&amp;nbsp;&lt;div&gt;Objection&lt;/div&gt;" style="shape=parallelogram;perimeter=parallelogramPerimeter;whiteSpace=wrap;html=1;fixedSize=1;" vertex="1" parent="1">
          <mxGeometry x="160" y="20" width="120" height="60" as="geometry" />
        </mxCell>
        <mxCell id="MkJuN0U7cOX32T57An9G-48" value="Division" style="ellipse;whiteSpace=wrap;html=1;fillColor=#dae8fc;strokeColor=#6c8ebf;rounded=0;" vertex="1" parent="1">
          <mxGeometry x="400" y="260" width="80" height="80" as="geometry" />
        </mxCell>
        <mxCell id="MkJuN0U7cOX32T57An9G-50" value="District" style="ellipse;whiteSpace=wrap;html=1;fillColor=#dae8fc;strokeColor=#6c8ebf;rounded=0;" vertex="1" parent="1">
          <mxGeometry x="760" y="-20" width="80" height="80" as="geometry" />
        </mxCell>
        <mxCell id="MkJuN0U7cOX32T57An9G-54" value="1.Fish&lt;div&gt;2.vegetable&lt;/div&gt;&lt;div&gt;3.Rice&lt;/div&gt;&lt;div&gt;etc.&lt;/div&gt;" style="shape=parallelogram;perimeter=parallelogramPerimeter;whiteSpace=wrap;html=1;fixedSize=1;size=20;" vertex="1" parent="1">
          <mxGeometry x="740" y="560" width="120" height="60" as="geometry" />
        </mxCell>
        <mxCell id="MkJuN0U7cOX32T57An9G-55" value="beef, ilsha,&amp;nbsp;" style="shape=parallelogram;perimeter=parallelogramPerimeter;whiteSpace=wrap;html=1;fixedSize=1;fillColor=#f5f5f5;strokeColor=#666666;rounded=0;fontColor=#333333;" vertex="1" parent="1">
          <mxGeometry x="380" y="570" width="120" height="60" as="geometry" />
        </mxCell>
        <mxCell id="MkJuN0U7cOX32T57An9G-59" value="" style="edgeStyle=orthogonalEdgeStyle;rounded=0;orthogonalLoop=1;jettySize=auto;html=1;" edge="1" parent="1" source="MkJuN0U7cOX32T57An9G-57" target="MkJuN0U7cOX32T57An9G-58">
          <mxGeometry relative="1" as="geometry" />
        </mxCell>
        <mxCell id="MkJuN0U7cOX32T57An9G-57" value="Preferable product" style="rounded=0;whiteSpace=wrap;html=1;fillColor=#dae8fc;strokeColor=#6c8ebf;" vertex="1" parent="1">
          <mxGeometry x="380" y="430" width="120" height="60" as="geometry" />
        </mxCell>
        <mxCell id="MkJuN0U7cOX32T57An9G-61" value="" style="edgeStyle=orthogonalEdgeStyle;rounded=0;orthogonalLoop=1;jettySize=auto;html=1;" edge="1" parent="1" source="MkJuN0U7cOX32T57An9G-58" target="MkJuN0U7cOX32T57An9G-60">
          <mxGeometry relative="1" as="geometry" />
        </mxCell>
        <mxCell id="MkJuN0U7cOX32T57An9G-58" value="See" style="rhombus;whiteSpace=wrap;html=1;rounded=0;fillColor=#f8cecc;strokeColor=#b85450;" vertex="1" parent="1">
          <mxGeometry x="200" y="420" width="80" height="80" as="geometry" />
        </mxCell>
        <mxCell id="MkJuN0U7cOX32T57An9G-60" value="product Price" style="whiteSpace=wrap;html=1;rounded=0;fillColor=#dae8fc;strokeColor=#6c8ebf;" vertex="1" parent="1">
          <mxGeometry x="20" y="430" width="120" height="60" as="geometry" />
        </mxCell>
      </root>
    </mxGraphModel>
  </diagram>
</mxfile>
